<svg width="544" height="544" viewBox="0 0 544 544" fill="none" xmlns="http://www.w3.org/2000/svg">
<path d="M445.196 221.544C438.022 218.382 430.61 217.532 423.266 215.186C417.09 213.245 411.31 210.217 406.198 206.244C394.536 197.234 380.426 178.806 380.426 139.4C380.426 84.354 339.966 57.97 305.694 46.002C283.494 38.3642 260.218 34.3128 236.742 34C184.042 34 143.99 48.858 114.036 72.08C84.3543 95.2 65.7563 125.698 54.1283 155.278C44.2997 181.171 38.0318 208.279 35.4963 235.858C27.7783 316.642 44.2343 410.618 112.336 462.332C160.276 498.814 224.23 510 289 510C347.956 510 402.73 500.48 443.292 474.878C485.112 448.46 510 406.028 510 345.678C510 291.516 492.32 258.876 472.328 239.802C464.385 232.19 455.182 226.013 445.128 221.544M132.804 435.268C80.9203 395.828 67.3203 324.428 67.9663 262.684C68.0343 257.04 68.3063 248.914 69.2583 239.088C71.1283 219.368 75.5823 193.426 85.6803 167.722C95.7783 142.052 111.248 117.3 134.844 98.94C178.874 64.702 242.624 60.01 294.406 78.098C323.442 88.23 346.358 106.046 346.358 139.4C346.358 188.36 364.616 217.124 385.356 233.138C404.532 247.962 430.916 247.316 448.834 264.418C498.712 312.018 480.114 411.4 425.102 446.114C392.462 466.752 345.27 476 288.966 476C227.086 476 172.074 465.12 132.804 435.268Z" fill="white" fill-opacity="0.5"/>
<path d="M350.876 244.36C346.946 242.628 342.886 242.163 338.863 240.878C335.479 239.814 332.313 238.155 329.513 235.979C323.125 231.044 315.395 220.949 315.395 199.362C315.395 169.209 293.231 154.756 274.457 148.2C262.296 144.016 249.546 141.796 236.686 141.625C207.817 141.625 185.877 149.764 169.468 162.485C153.209 175.15 143.021 191.857 136.651 208.06C131.267 222.244 127.833 237.094 126.445 252.202C122.217 296.455 131.231 347.934 168.537 376.263C194.798 396.247 229.832 402.375 265.313 402.375C297.608 402.375 327.613 397.16 349.833 383.135C372.742 368.664 386.375 345.42 386.375 312.36C386.375 282.691 376.69 264.811 365.739 254.362C361.387 250.192 356.346 246.808 350.839 244.36M179.749 361.437C151.328 339.832 143.878 300.72 144.231 266.897C144.269 263.805 144.418 259.354 144.939 253.971C145.964 243.169 148.403 228.958 153.935 214.877C159.467 200.815 167.941 187.256 180.867 177.199C204.986 158.443 239.908 155.873 268.274 165.782C284.18 171.332 296.733 181.091 296.733 199.362C296.733 226.183 306.735 241.939 318.096 250.712C328.6 258.832 343.053 258.478 352.869 267.847C380.192 293.922 370.004 348.363 339.868 367.379C321.988 378.684 296.137 383.75 265.294 383.75C231.396 383.75 201.261 377.79 179.749 361.437Z" fill="white" fill-opacity="0.5"/>
</svg>
