<svg width="579" height="528" viewBox="0 0 579 528" fill="none" xmlns="http://www.w3.org/2000/svg">
<path fill-rule="evenodd" clip-rule="evenodd" d="M36.9478 457.712L21.6506 446.515L23.6991 465.361L12.4977 480.661L31.3489 478.611L46.6506 489.816L44.5976 470.962L55.799 455.661L36.9478 457.712Z" fill="white" fill-opacity="0.05"/>
<path fill-rule="evenodd" clip-rule="evenodd" d="M85.9478 482.697L70.6506 471.5L72.6991 490.346L61.4977 505.647L80.3489 503.596L95.6506 514.801L93.5976 495.947L104.799 480.647L85.9478 482.697Z" fill="white" fill-opacity="0.05"/>
<path fill-rule="evenodd" clip-rule="evenodd" d="M66.6491 407.346L59 390L51.3509 407.346L34 414.995L51.3509 422.645L59 440L66.6491 422.645L84 414.995L66.6491 407.346Z" fill="white" fill-opacity="0.05"/>
<path d="M514.488 76.6044C522.929 86.6643 529.306 98.2882 533.255 110.813C537.204 123.337 538.647 136.517 537.503 149.599C536.358 162.681 532.648 175.41 526.584 187.058C520.521 198.706 512.222 209.046 502.162 217.488C492.102 225.929 480.478 232.306 467.954 236.255C455.429 240.204 442.25 241.647 429.168 240.503C416.085 239.358 403.357 235.648 391.708 229.584C380.06 223.521 369.72 215.222 361.279 205.162C344.231 184.845 335.952 158.588 338.264 132.168C340.575 105.747 353.288 81.3265 373.604 64.2788C393.921 47.231 420.178 38.9522 446.599 41.2637C473.019 43.5752 497.44 56.2877 514.488 76.6044Z" stroke="white" stroke-opacity="0.02" stroke-width="25" stroke-linecap="round" stroke-linejoin="round"/>
<path d="M459.994 158.591L417.856 108.373C416.719 107.018 416.167 105.268 416.322 103.506C416.476 101.745 417.323 100.117 418.678 98.9805L430.594 88.9816M459.994 158.591C461.401 160.268 462.464 162.205 463.122 164.293C463.78 166.38 464.021 168.577 463.83 170.757C463.639 172.937 463.021 175.059 462.01 177C461 178.941 459.617 180.665 457.94 182.072C456.263 183.479 454.326 184.541 452.239 185.2C450.151 185.858 447.955 186.098 445.774 185.908C443.594 185.717 441.472 185.098 439.531 184.088C437.59 183.077 435.866 181.694 434.459 180.017C431.618 176.631 430.238 172.255 430.624 167.852C431.009 163.448 433.128 159.378 436.514 156.537C439.9 153.696 444.276 152.316 448.679 152.701C453.083 153.086 457.153 155.205 459.994 158.591Z" stroke="white" stroke-opacity="0.02" stroke-width="25" stroke-linecap="round" stroke-linejoin="round"/>
</svg>
