<svg width="372" height="394" viewBox="0 0 372 394" fill="none" xmlns="http://www.w3.org/2000/svg">
<path d="M445.196 71.544C438.022 68.382 430.61 67.532 423.266 65.186C417.09 63.2447 411.31 60.2165 406.198 56.244C394.536 47.234 380.426 28.806 380.426 -10.6C380.426 -65.646 339.966 -92.03 305.694 -103.998C283.494 -111.636 260.218 -115.687 236.742 -116C184.042 -116 143.99 -101.142 114.036 -77.92C84.3543 -54.8 65.7563 -24.302 54.1283 5.278C44.2997 31.1711 38.0318 58.2786 35.4963 85.858C27.7783 166.642 44.2343 260.618 112.336 312.332C160.276 348.814 224.23 360 289 360C347.956 360 402.73 350.48 443.292 324.878C485.112 298.46 510 256.028 510 195.678C510 141.516 492.32 108.876 472.328 89.802C464.385 82.19 455.182 76.0126 445.128 71.544M132.804 285.268C80.9203 245.828 67.3203 174.428 67.9663 112.684C68.0343 107.04 68.3063 98.914 69.2583 89.088C71.1283 69.368 75.5823 43.426 85.6803 17.722C95.7783 -7.948 111.248 -32.7 134.844 -51.06C178.874 -85.298 242.624 -89.99 294.406 -71.902C323.442 -61.77 346.358 -43.954 346.358 -10.6C346.358 38.36 364.616 67.124 385.356 83.138C404.532 97.962 430.916 97.316 448.834 114.418C498.712 162.018 480.114 261.4 425.102 296.114C392.462 316.752 345.27 326 288.966 326C227.086 326 172.074 315.12 132.804 285.268Z" fill="white" fill-opacity="0.5"/>
<path d="M350.876 94.3605C346.946 92.6284 342.886 92.1628 338.863 90.8776C335.479 89.8142 332.313 88.1554 329.513 85.9792C323.125 81.0436 315.395 70.9489 315.395 49.3625C315.395 19.2086 293.231 4.75563 274.457 -1.80037C262.296 -5.98431 249.546 -8.20368 236.686 -8.375C207.817 -8.375 185.877 -0.235878 169.468 12.485C153.209 25.15 143.021 41.8566 136.651 58.0604C131.267 72.2444 127.833 87.0938 126.445 102.202C122.217 146.455 131.231 197.934 168.537 226.263C194.798 246.247 229.832 252.375 265.313 252.375C297.608 252.375 327.613 247.16 349.833 233.135C372.742 218.664 386.375 195.42 386.375 162.36C386.375 132.691 376.69 114.811 365.739 104.362C361.387 100.192 356.346 96.8084 350.839 94.3605M179.749 211.437C151.328 189.832 143.878 150.72 144.231 116.897C144.269 113.805 144.418 109.354 144.939 103.971C145.964 93.1685 148.403 78.9576 153.935 64.8771C159.467 50.8153 167.941 37.2563 180.867 27.1988C204.986 8.44338 239.908 5.87312 268.274 15.7816C284.18 21.3319 296.733 31.0914 296.733 49.3625C296.733 76.1825 306.735 91.9392 318.096 100.712C328.6 108.832 343.053 108.478 352.869 117.847C380.192 143.922 370.004 198.363 339.868 217.379C321.988 228.684 296.137 233.75 265.294 233.75C231.396 233.75 201.261 227.79 179.749 211.437Z" fill="white" fill-opacity="0.5"/>
</svg>
